#!OML:ASF F:\VICON\USERDATA\INSTALL\rory3\rory3.ASF
:FULLY-SPECIFIED
:DEGREES
97
root 0.6326574119821072 17.70882663842818 36.22378746331405 -2.3354458654348678 -2.4684219274548846 -5.145578180809654
lfemur -20.795168645528832 -3.5605740621758546 -14.847246588710355
ltibia 20.794960824864745
lfoot -1.955136554208754 -4.044656259619847
ltoes -7.74149082759016
rfemur -0.9115468333971073 2.9977338039690737 30.064934351148295
rtibia 31.479234919820755
rfoot -4.700339588783581 -7.882312535517638
rtoes -2.960094164741938
lowerback 10.848086108194677 1.3946332925059473 3.56844058715574
upperback -0.20262371367950704 2.8334827709323855 1.7387192233997304
thorax -5.895507949485884 1.4279250805857613 -0.9511317150942717
lowerneck -16.205097945697506 -3.3458018763974176 -2.881661953701423
upperneck 21.102108327588017 -4.716948243937219 2.1812723255654847
head 9.462303136905183 -2.0874098926272038 0.5715134810494737
lclavicle 2.948563844991955e-16 4.2887243834790224e-17
lhumerus -33.52222582120017 2.6954552211568306 80.14557482041579
lradius 24.44677808174608
lwrist 7.593069120920435
lhand -29.14050291482392 20.195804491557247
lfingers 7.125020000000001
lthumb -2.5443864989134055 50.305212749645285
rclavicle 2.972254803422681e-16 5.3964605813956835e-17
rhumerus -28.512767292312983 -17.570612435821527 -78.18038974043988
rradius 33.06590637969557
rwrist -0.34297140003743243
rhand -17.75870552199701 22.92371643132389
rfingers 7.125020000000001
rthumb 8.345917354311077 -7.02910481119641
98
root 0.6729995963103955 17.7404563300524 36.90204934015016 -2.820995547160021 -2.3498852315263674 -4.410983294957969
lfemur -19.80584715476036 -3.2351921113575166 -16.40328487680467
ltibia 24.314808069546995
lfoot -2.4180873015871986 -4.181621041669725
ltoes -8.037995558336759
rfemur -2.588682961088878 2.1598318775881657 28.68212915059635
rtibia 37.69889900169849
rfoot -4.250112880943888 -7.854275694935097
rtoes -2.4830703662451645
lowerback 10.874817172310298 1.4353051541695252 3.229960385570913
upperback -0.19039701065231843 2.74715771923631 1.6018659226007945
thorax -5.89027339172539 1.4281174827636933 -0.8901718385108299
lowerneck -16.246704011417073 -3.3401343776253674 -2.890235119794169
upperneck 21.095245136839257 -4.738554078461177 2.214282682238919
head 9.465421592425022 -2.0953897204275536 0.5781377825460039
lclavicle 2.9485638427695695e-16 4.2887244252438874e-17
lhumerus -33.212391665362865 2.990203912171708 80.16397034198998
lradius 24.056109600007197
lwrist 7.726867357589158
lhand -29.149629698464796 20.06791314113797
lfingers 7.125020000000001
lthumb -2.5437679112193208 50.213963800358236
rclavicle 2.9722548006395643e-16 5.396460561922594e-17
rhumerus -29.09013375633277 -18.053459775575384 -78.13775598221085
rradius 33.07752597550798
rwrist 0.052075554567579285
rhand -17.752561886024225 22.88681682736974
rfingers 7.125020000000001
rthumb 8.364913100633983 -7.0160022652767795
99
root 0.7123519827183167 17.778598566704904 37.79884879522239 -3.2046172436728204 -2.3392427113781586 -3.6060764362721702
lfemur -18.094129524911683 -2.7704113421080843 -17.771489382219006
ltibia 27.07753264366683
lfoot -3.8923716664633305 -4.952016262992243
ltoes -8.146319312748538
rfemur -4.785745909707487 1.52077112850339 27.624784253059303
rtibia 45.65927555200458
rfoot -3.1127452024791067 -7.540588999149426
rtoes -0.9913540269926817
lowerback 10.921450726364696 1.441085263696478 2.772881885723212
upperback -0.1534068469553786 2.6187565298472 1.469666954698311
thorax -5.907252364441173 1.4035054407431355 -0.7726722397911929
lowerneck -16.262090381459682 -3.3274692937727166 -2.886406926813698
upperneck 21.103789032748352 -4.735449494068568 2.223376309804113
head 9.477906022985156 -2.0971111829020255 0.5883007430413973
lclavicle 2.948563828884877e-16 4.2887243558039736e-17
lhumerus -33.2146134070884 2.8481220516984855 80.12455605893089
lradius 23.71491918476131
lwrist 7.752669099461015
lhand -29.16046316936835 19.938237970176132
lfingers 7.125020000000001
lthumb -2.5418524980386206 50.117267994866936
rclavicle 2.9722548035460804e-16 5.3964605837376e-17
rhumerus -29.61687422239909 -18.52070817173594 -78.0464304579153
rradius 32.87639963927293
rwrist 0.5230771180160967
rhand -17.756743992476103 22.837464484154907
rfingers 7.125020000000001
rthumb 8.391887808651566 -6.986139389313747
100
root 0.7460073386585098 17.814040039862995 38.64363329489833 -3.476573947196357 -2.354985951298952 -2.827802173472762
lfemur -16.063739494807518 -2.3449412935433114 -19.214786071875366
ltibia 29.074984703433124
lfoot -4.670920993659333 -4.746361255327898
ltoes -8.458359847951815
rfemur -7.976399655026737 0.9244393358025176 26.375961632316837
rtibia 54.571693333746175
rfoot -1.6743781121597436 -7.4211603301274405
rtoes 1.2007563263990086
lowerback 10.985071496609693 1.3892475008120022 2.1796674013311117
upperback -0.08998122872252035 2.424331017777001 1.3544101202963192
thorax -5.944130756008503 1.3581044709623566 -0.6030268445141567
lowerneck -16.252702235984206 -3.3058345114439627 -2.8723283384226796
upperneck 21.109986938950026 -4.7121344085748635 2.1977897221678395
head 9.48302447350464 -2.099667789573859 0.586828804651476
lclavicle 2.948563837202523e-16 4.288724416373557e-17
lhumerus -33.05641992660311 2.5069021186433007 80.25548510412052
lradius 23.443220439247984
lwrist 7.686864189696934
lhand -29.172499725903773 19.812896676807448
lfingers 7.125020000000001
lthumb -2.541297120842228 50.00939149719166
rclavicle 2.9722548024134926e-16 5.396460577061493e-17
rhumerus -30.13013709244269 -19.03818543038148 -77.97302950762479
rradius 32.4780057473404
rwrist 1.001448511596804
rhand -17.763957819147645 22.795213421753473
rfingers 7.125020000000001
rthumb 8.424033109471802 -6.941234528308817
101
root 0.7727675129462525 17.843705659954356 39.525910121207374 -3.6450680700680724 -2.2287992890776853 -2.120709260436393
lfemur -14.089019242083001 -2.271594234772198 -20.900988779869945
ltibia 29.535977226443183
lfoot -4.60199775729893 -4.7880397945056865
ltoes -8.935896443919667
rfemur -10.406580493748274 0.4532171610047937 25.805237024463292
rtibia 63.07503804553757
rfoot -0.8317483672414365 -7.636933382817301
rtoes 3.1638524305373514
lowerback 11.076611951972515 1.273947978235506 1.4904711063149194
upperback -0.012284193648997938 2.1410400321678322 1.2684886403759523
thorax -5.998727894187186 1.2882275406697443 -0.39766730709244436
lowerneck -16.255952931403343 -3.297356469444972 -2.8761524040125126
upperneck 21.094926361685395 -4.674605657870378 2.162667410601371
head 9.4944733990795 -2.092628983302895 0.5919827952538965
lclavicle 2.9485638182922934e-16 4.288724255302768e-17
lhumerus -32.88934299407272 2.0649546752197185 80.32820904931748
lradius 23.25837212725861
lwrist 7.61236379714429
lhand -29.18487871089891 19.69632012870166
lfingers 7.125020000000001
lthumb -2.5458201508992313 49.88472502161526
rclavicle 2.9722548011808028e-16 5.3964605677013903e-17
rhumerus -30.523568544037044 -19.42730437979994 -77.79605606193192
rradius 31.92440059211558
rwrist 1.5015949558930521
rhand -17.769441468322906 22.773383164056806
rfingers 7.125020000000001
rthumb 8.451808727848885 -6.8968769843070925
102
root 0.788014449035096 17.86071433594963 40.02441933849789 -3.7382959516683902 -1.9506658807311452 -1.628945272716786
lfemur -12.037279719949403 -2.3422767829355893 -22.201785963602845
ltibia 29.172580975043534
lfoot -5.31985658713566 -4.7578298492923
ltoes -8.957992237096002
rfemur -13.422343693410554 -0.21878885465584963 25.107251702620314
rtibia 69.69382736883719
rfoot -1.1722808892247727 -8.173083480487536
rtoes 4.514273347368908
lowerback 11.192900752066143 1.105252691867521 0.8003255607268671
upperback 0.06378899088868306 1.7651967474420316 1.219116861524559
thorax -6.064458829174855 1.1928878424571634 -0.15747367507058585
lowerneck -16.24869346812376 -3.2929246082511825 -2.8795913556482584
upperneck 21.05806053593973 -4.643665844549078 2.127009652576275
head 9.50931672580026 -2.075363306503062 0.5993640521022897
lclavicle 2.948563824225109e-16 4.288724291327774e-17
lhumerus -32.4736308791762 2.1144091246731627 80.38036766248003
lradius 23.171706299649323
lwrist 7.5406615605230485
lhand -29.20023423244279 19.582820780891826
lfingers 7.125020000000001
lthumb -2.5571396836322475 49.74742914708946
rclavicle 2.972254799280115e-16 5.39646055514265e-17
rhumerus -30.957918314015288 -19.707617974504515 -77.64806876100347
rradius 31.27883220305816
rwrist 2.022113887887608
rhand -17.774675969042185 22.770491166589117
rfingers 7.125020000000001
rthumb 8.478250508368362 -6.855100953898827
103
root 0.7932014968881079 17.863936863569897 40.333817996964385 -3.7584439112748975 -1.5477941359702134 -1.2610612218155344
lfemur -9.883552303948425 -2.431146375238072 -22.94800831362234
ltibia 28.585510946199673
lfoot -5.536868524326268 -4.705009862989372
ltoes -8.627036136738857
rfemur -15.605955381494477 -0.6633358314851185 24.983891139060532
rtibia 73.56682133780194
rfoot -1.7608171782689803 -8.736317708976252
rtoes 5.39270958401101
lowerback 11.309515193083666 0.8971129655123885 0.19210344397469947
upperback 0.12848654646319138 1.3304862121035095 1.2094556469263438
thorax -6.132244004071394 1.0720700828067191 0.12047621771083472
lowerneck -16.22735724610038 -3.2848859502547665 -2.8770686157446295
upperneck 21.026130149334456 -4.627716997419972 2.085018779764601
head 9.523109928934295 -2.057263822166432 0.6083654060701273
lclavicle 2.9485638211886075e-16 4.288724269454775e-17
lhumerus -32.12851610177293 2.4757768366583193 80.38018916179863
lradius 23.189757929793934
lwrist 7.500053628117338
lhand -29.216086757262797 19.481848305907803
lfingers 7.125020000000001
lthumb -2.5715081839670773 49.61636894834404
rclavicle 2.9722547986276244e-16 5.396460551504737e-17
rhumerus -31.41787595897594 -19.93307480560401 -77.54406166725434
rradius 30.60061163091248
rwrist 2.484846929486173
rhand -17.782632794715468 22.777406048259014
rfingers 7.125020000000001
rthumb 8.502767387109568 -6.823524506842449
